<?xml version="1.0" encoding="UTF-8"?>
<svg width="691.2" height="691.2" version="1.1" viewBox="0 0 138.3 138.3" xml:space="preserve" xmlns="http://www.w3.org/2000/svg"><g transform="matrix(.8842 0 0 .8842 -17.24 1.281)" stroke-linecap="round" stroke-linejoin="round"><rect x="19.5" y="-1.449" width="156.4" height="156.4" fill="transparent" stroke-width="2.754"/><g stroke-width=".6788"><path d="m67.97 25.38-11.92 8.439v50.9a42 42 0 0 0-0.03477 1.063 42 42 0 0 0 42 42 42 42 0 0 0 42-42 42 42 0 0 0-42-42 42 42 0 0 0-25.13 8.356v17.71a29.83 29.83 0 0 1 25.22-13.9 29.83 29.83 0 0 1 29.83 29.83 29.83 29.83 0 0 1-29.83 29.83 29.83 29.83 0 0 1-29.83-29.83 29.83 29.83 0 0 1 0.0063-0.2266h-0.02305v-29.41a42 42 0 0 0-0.01016 0.0098v-30.78h-0.2754z" fill="#0c1118" stroke="#2c3138"/><path d="m98.11 60.88a25 25 0 0 0-25 25 25 25 0 0 0 25 25 25 25 0 0 0 25-25 25 25 0 0 0-25-25zm0 10.64a14.36 14.36 0 0 1 14.36 14.36 14.36 14.36 0 0 1-14.36 14.36 14.36 14.36 0 0 1-14.36-14.36 14.36 14.36 0 0 1 14.36-14.36z" fill="#01cffc" stroke="#01b4dc"/><circle cx="98.11" cy="85.88" r="10" fill="#f8465e" stroke="#f82a44"/></g></g></svg>
