<?xml version="1.0" encoding="UTF-8"?>
<svg width="680" height="680" version="1.1" viewBox="0 0 20.4 20.4" xmlns="http://www.w3.org/2000/svg">
 <path d="m10.2 0.1998a3 3 0 0 0-3 3v1.11l5.746 7.096a3 3 0 0 0 0.2537-1.206v-7a3 3 0 0 0-3-3zm-3 8.881v1.119a3 3 0 0 0 3.321 2.982l-3.321-4.101zm-3 0.1189a1 1 0 0 0-1 1 7.001 7.001 0 0 0 6 6.93v2.07a1 1 0 1 0 2 0v-2.07a7.001 7.001 0 0 0 2.021-0.6139l-1.311-1.618a5 5 0 0 1-6.71-4.698 1 1 0 0 0-1-1zm12 0a1 1 0 0 0-1 1 5 5 0 0 1-0.906 2.87l1.295 1.599a7.001 7.001 0 0 0 1.611-4.469 1 1 0 0 0-1-1z"/>
 <path d="m17.35 19.13-14.26-17.48" stroke="#000" stroke-linecap="round" stroke-linejoin="round" stroke-width="1.8"/>
</svg>
